<svg width="30" height="30" viewBox="0 0 30 30" fill="none" xmlns="http://www.w3.org/2000/svg">
<path d="M3.75009 0.000125008C1.6939 0.000125008 0.000125008 1.6939 0.000125008 3.75009V7.50006C-0.00221753 7.6657 0.0283838 7.83015 0.0901505 7.98386C0.151917 8.13757 0.243617 8.27747 0.359922 8.39543C0.476227 8.51339 0.614816 8.60706 0.767636 8.671C0.920457 8.73493 1.08446 8.76785 1.25011 8.76785C1.41577 8.76785 1.57977 8.73493 1.73259 8.671C1.88541 8.60706 2.024 8.51339 2.14031 8.39543C2.25661 8.27747 2.34831 8.13757 2.41008 7.98386C2.47185 7.83015 2.50245 7.6657 2.5001 7.50006V3.75009C2.5001 3.04381 3.04381 2.5001 3.75009 2.5001H7.50006C7.6657 2.50245 7.83015 2.47185 7.98386 2.41008C8.13757 2.34831 8.27747 2.25661 8.39543 2.14031C8.51339 2.024 8.60706 1.88541 8.671 1.73259C8.73493 1.57977 8.76785 1.41577 8.76785 1.25011C8.76785 1.08446 8.73493 0.920457 8.671 0.767636C8.60706 0.614816 8.51339 0.476227 8.39543 0.359922C8.27747 0.243617 8.13757 0.151917 7.98386 0.0901505C7.83015 0.0283838 7.6657 -0.00221753 7.50006 0.000125008H3.75009ZM22.4999 0.000125008C22.3343 -0.00221753 22.1698 0.0283838 22.0161 0.0901505C21.8624 0.151917 21.7225 0.243617 21.6046 0.359922C21.4866 0.476227 21.3929 0.614816 21.329 0.767636C21.2651 0.920457 21.2321 1.08446 21.2321 1.25011C21.2321 1.41577 21.2651 1.57977 21.329 1.73259C21.3929 1.88541 21.4866 2.024 21.6046 2.14031C21.7225 2.25661 21.8624 2.34831 22.0161 2.41008C22.1698 2.47185 22.3343 2.50245 22.4999 2.5001H26.2499C26.9562 2.5001 27.4999 3.04381 27.4999 3.75009V7.50006C27.4976 7.6657 27.5282 7.83015 27.5899 7.98386C27.6517 8.13757 27.7434 8.27747 27.8597 8.39543C27.976 8.51339 28.1146 8.60706 28.2674 8.671C28.4202 8.73493 28.5842 8.76785 28.7499 8.76785C28.9155 8.76785 29.0795 8.73493 29.2324 8.671C29.3852 8.60706 29.5238 8.51339 29.6401 8.39543C29.7564 8.27747 29.8481 8.13757 29.9099 7.98386C29.9716 7.83015 30.0022 7.6657 29.9999 7.50006V3.75009C29.9999 1.6939 28.3061 0.000125008 26.2499 0.000125008H22.4999ZM1.23058 21.2329C0.899493 21.238 0.58398 21.3744 0.353293 21.6119C0.122606 21.8495 -0.00440911 22.1688 0.000125008 22.4999V26.2499C0.000125008 28.3061 1.6939 29.9999 3.75009 29.9999H7.50006C7.6657 30.0022 7.83015 29.9716 7.98386 29.9099C8.13757 29.8481 8.27747 29.7564 8.39543 29.6401C8.51339 29.5238 8.60706 29.3852 8.671 29.2324C8.73493 29.0795 8.76785 28.9155 8.76785 28.7499C8.76785 28.5842 8.73493 28.4202 8.671 28.2674C8.60706 28.1146 8.51339 27.976 8.39543 27.8597C8.27747 27.7434 8.13757 27.6517 7.98386 27.5899C7.83015 27.5282 7.6657 27.4976 7.50006 27.4999H3.75009C3.04381 27.4999 2.5001 26.9562 2.5001 26.2499V22.4999C2.50239 22.3327 2.4711 22.1667 2.40808 22.0118C2.34506 21.8569 2.2516 21.7162 2.13322 21.598C2.01484 21.4799 1.87396 21.3867 1.71891 21.3239C1.56387 21.2612 1.39781 21.2302 1.23058 21.2329ZM28.7304 21.2329C28.3993 21.238 28.0838 21.3744 27.8531 21.6119C27.6224 21.8495 27.4954 22.1688 27.4999 22.4999V26.2499C27.4999 26.9562 26.9562 27.4999 26.2499 27.4999H22.4999C22.3343 27.4976 22.1698 27.5282 22.0161 27.5899C21.8624 27.6517 21.7225 27.7434 21.6046 27.8597C21.4866 27.976 21.3929 28.1146 21.329 28.2674C21.2651 28.4202 21.2321 28.5842 21.2321 28.7499C21.2321 28.9155 21.2651 29.0795 21.329 29.2324C21.3929 29.3852 21.4866 29.5238 21.6046 29.6401C21.7225 29.7564 21.8624 29.8481 22.0161 29.9099C22.1698 29.9716 22.3343 30.0022 22.4999 29.9999H26.2499C28.3061 29.9999 29.9999 28.3061 29.9999 26.2499V22.4999C30.0022 22.3327 29.9709 22.1667 29.9079 22.0118C29.8448 21.8569 29.7514 21.7162 29.633 21.598C29.5146 21.4799 29.3737 21.3867 29.2187 21.3239C29.0636 21.2612 28.8976 21.2302 28.7304 21.2329Z" fill="white"/>
<path d="M14.9998 7.94116C9.1763 7.94116 5.48983 13.9599 5.48983 13.9599C5.3766 14.1342 5.29395 14.3327 5.29395 14.5588C5.29395 14.786 5.37762 14.9856 5.49194 15.1598C5.49194 15.1598 8.52924 21.1765 14.9998 21.1765C21.4704 21.1765 24.5056 15.162 24.5056 15.162C24.621 14.9866 24.7057 14.7871 24.7057 14.5588C24.7057 14.3316 24.6231 14.1332 24.5077 13.9578C24.5077 13.9578 20.8234 7.94116 14.9998 7.94116ZM14.9998 10.147C17.3821 10.147 19.3136 12.1224 19.3136 14.5588C19.3136 16.9952 17.3821 18.9706 14.9998 18.9706C12.6176 18.9706 10.6861 16.9952 10.6861 14.5588C10.6861 12.1224 12.6176 10.147 14.9998 10.147ZM14.9998 12.3529C13.8082 12.3529 12.843 13.3401 12.843 14.5588C12.843 15.7776 13.8082 16.7647 14.9998 16.7647C16.1915 16.7647 17.1567 15.7776 17.1567 14.5588C17.1567 13.3401 16.1915 12.3529 14.9998 12.3529Z" fill="white"/>
</svg>
