<svg width="466" height="237" viewBox="0 0 466 237" fill="none" xmlns="http://www.w3.org/2000/svg">
<g clip-path="url(#clip0_46_1249)">
<path d="M106.966 116.791H169.875V229.576H106.966V116.791Z" fill="white"/>
<path d="M106.966 117.849H167.331C168.135 117.849 168.964 117.918 169.766 117.849C169.802 117.846 169.839 117.849 169.875 117.849L168.981 116.79V224.998C168.981 226.456 168.928 227.929 168.981 229.385C168.983 229.449 168.981 229.513 168.981 229.577L169.875 228.518H109.51C108.706 228.518 107.877 228.449 107.075 228.518C107.039 228.521 107.002 228.518 106.966 228.518L107.86 229.577V121.369C107.86 119.908 107.882 118.443 107.86 116.982C107.859 116.918 107.86 116.854 107.86 116.79C107.86 115.428 106.072 115.426 106.072 116.79V224.998C106.072 226.46 106.05 227.924 106.072 229.385C106.072 229.449 106.072 229.513 106.072 229.577C106.072 230.149 106.481 230.636 106.966 230.636H162.147C164.683 230.636 167.231 230.724 169.766 230.636C169.802 230.634 169.839 230.636 169.875 230.636C170.358 230.636 170.769 230.151 170.769 229.577V121.369C170.769 119.908 170.791 118.443 170.769 116.982C170.768 116.918 170.769 116.854 170.769 116.79C170.769 116.218 170.36 115.732 169.875 115.732H114.694C112.158 115.732 109.61 115.643 107.075 115.732C107.038 115.733 107.002 115.732 106.966 115.732C105.815 115.732 105.813 117.849 106.966 117.849Z" fill="#1B1464"/>
<path d="M235.98 179.772H49.0714V36.1675H235.98V179.772Z" fill="white"/>
<path d="M235.98 178.686H56.6583C54.2571 178.686 51.7859 178.486 49.3889 178.686C49.2839 178.695 49.1763 178.686 49.0711 178.686L49.9881 179.771V38.3452C49.9881 37.7184 50.0585 37.0262 49.9881 36.4037C49.9795 36.3278 49.9881 36.2441 49.9881 36.1672L49.0711 37.2528H228.393C230.794 37.2528 233.265 37.4529 235.662 37.2528C235.767 37.244 235.875 37.2528 235.98 37.2528L235.063 36.1672V162.172C235.063 167.948 234.899 173.762 235.063 179.535C235.065 179.614 235.063 179.693 235.063 179.771C235.063 181.169 236.898 181.171 236.898 179.771V53.7666C236.898 47.9909 237.062 42.1773 236.898 36.404C236.895 36.3253 236.898 36.2463 236.898 36.1676C236.898 35.5806 236.477 35.0819 235.98 35.0819H56.6586C54.2371 35.0819 51.8103 35.0272 49.3892 35.0819C49.2833 35.0844 49.1772 35.0819 49.0714 35.0819C48.5756 35.0819 48.1543 35.5796 48.1543 36.1676V162.172C48.1543 167.948 47.99 173.762 48.1543 179.535C48.1567 179.614 48.1543 179.693 48.1543 179.771C48.1543 180.358 48.5747 180.857 49.0714 180.857H228.393C230.815 180.857 233.242 180.912 235.663 180.857C235.768 180.855 235.875 180.857 235.98 180.857C237.161 180.857 237.163 178.686 235.98 178.686Z" fill="#1B1464"/>
<path d="M227.183 149.066H58.0243V44.9909H227.183V149.066Z" fill="white"/>
<path d="M227.183 147.98H64.8907C62.7149 147.98 60.4842 147.812 58.3117 147.98C58.2166 147.988 58.1194 147.98 58.024 147.98L58.9411 149.066V49.2459C58.9411 47.9361 59.0967 46.4732 58.9411 45.1727C58.9342 45.1144 58.9411 45.0495 58.9411 44.9906L58.024 46.0762H220.316C222.492 46.0762 224.723 46.2449 226.895 46.0762C226.991 46.0688 227.088 46.0762 227.183 46.0762L226.266 44.9906V136.253C226.266 140.452 226.13 144.687 226.266 148.884C226.268 148.945 226.266 149.006 226.266 149.066C226.266 150.463 228.1 150.466 228.1 149.066V57.8035C228.1 53.6043 228.236 49.3698 228.1 45.1727C228.098 45.112 228.1 45.0509 228.1 44.9906C228.1 44.4036 227.68 43.9049 227.183 43.9049H64.8912C62.6997 43.9049 60.5036 43.8552 58.3123 43.9049C58.2166 43.907 58.1206 43.9049 58.0246 43.9049C57.5288 43.9049 57.1076 44.4026 57.1076 44.9906V136.253C57.1076 140.452 56.9719 144.687 57.1076 148.884C57.1097 148.945 57.1076 149.006 57.1076 149.066C57.1076 149.653 57.5279 150.152 58.0246 150.152H220.316C222.508 150.152 224.704 150.201 226.895 150.152C226.991 150.15 227.087 150.152 227.183 150.152C228.363 150.152 228.366 147.98 227.183 147.98ZM464.718 228.384C404.203 228.419 343.688 228.463 283.174 228.511C223.007 228.559 162.841 228.612 102.675 228.667C68.724 228.698 34.7729 228.729 0.821976 228.76C-0.272772 228.761 -0.274561 230.776 0.821976 230.775C61.308 230.719 121.794 230.663 182.28 230.61C242.454 230.558 302.629 230.508 362.803 230.465C396.774 230.441 430.746 230.418 464.718 230.398C465.813 230.398 465.815 228.384 464.718 228.384L464.718 228.384ZM464.718 44.806C441.85 44.8067 418.982 44.8155 396.114 44.8289C373.378 44.8423 350.641 44.8607 327.905 44.8808C315.075 44.8921 302.245 44.9041 289.416 44.9157C288.264 44.9168 288.263 47.0344 289.416 47.0333C312.273 47.0122 335.13 46.991 357.987 46.973C380.726 46.955 403.466 46.9402 426.205 46.9317C439.043 46.9268 451.88 46.9239 464.718 46.9236C465.869 46.9236 465.871 44.806 464.718 44.806Z" fill="#1B1464"/>
<path d="M36.8956 75.0224L63.7455 70.0302L67.214 96.1759L40.3644 101.168L36.8956 75.0224Z" fill="#FF89D8"/>
<path d="M260.487 230.339H294.13C295.681 230.339 297.241 230.397 298.791 230.339C298.812 230.339 298.834 230.339 298.856 230.339C300.007 230.339 300.009 228.222 298.856 228.222H265.212C263.662 228.222 262.102 228.165 260.552 228.222C260.53 228.223 260.508 228.222 260.487 228.222C259.336 228.222 259.334 230.339 260.487 230.339ZM313.277 46.9239C316.48 46.8745 319.678 47.0997 322.868 47.4025C325.768 47.6778 328.685 47.9083 331.572 48.335C333.973 48.6897 336.416 49.2935 338.601 50.5606C340.875 51.8795 342.597 53.9343 344.365 56.03C346.026 57.9976 347.692 59.9691 349.608 61.5926C351.592 63.2733 353.844 64.4369 356.246 64.9532C361.85 66.1575 367.639 65.2716 373.156 63.8687C375.859 63.1815 378.574 62.4072 381.208 61.4101C383.89 60.3947 386.489 59.0638 388.985 57.525C391.462 55.9975 393.843 54.2579 396.151 52.3972C397.693 51.1539 399.151 49.7502 400.783 48.6717C402.222 47.7209 403.624 46.9592 405.193 46.4097C406.001 46.1267 406.705 45.9407 407.447 45.9114C407.621 45.9043 407.796 45.9054 407.97 45.9177C408.053 45.9237 408.137 45.9315 408.22 45.9428C408.017 45.9145 408.278 45.9562 408.303 45.9629C408.455 46.0024 408.606 46.0497 408.754 46.1048C408.788 46.1175 409.006 46.24 408.819 46.1316C408.896 46.1764 408.97 46.2269 409.045 46.2756C409.098 46.3098 409.149 46.3525 409.198 46.3942C409.029 46.2516 409.217 46.4168 409.243 46.4475C409.294 46.5103 409.347 46.5707 409.397 46.6356C409.558 46.8449 409.31 46.4616 409.441 46.7055C409.483 46.7842 409.522 46.8639 409.561 46.9444C409.571 46.9635 409.677 47.2472 409.608 47.0457C409.679 47.2522 409.72 47.4671 409.764 47.6827C409.787 47.7925 409.776 48.0307 409.762 47.6256C409.765 47.7067 409.778 47.789 409.784 47.8698C409.802 48.0971 409.813 48.3251 409.823 48.5531C409.88 49.92 409.876 51.2915 409.872 52.6598C409.862 56.4694 409.786 60.279 409.715 64.0875C409.685 65.7018 409.654 67.3161 409.631 68.9305C409.619 69.7948 409.574 70.6768 409.624 71.5408C409.669 72.3148 410.279 73.1851 410.995 72.6158C411.945 71.8595 411.051 70.0242 410.092 70.7873L410.09 70.789L410.541 70.6443H410.539L410.991 70.789L410.989 70.7876L411.31 71.1674C411.357 71.2482 411.41 71.7854 411.412 71.5182C411.412 71.3774 411.405 71.2362 411.403 71.0954C411.399 70.6369 411.404 70.1784 411.409 69.7203C411.426 68.2126 411.456 66.7049 411.483 65.1975C411.554 61.3724 411.632 57.5469 411.656 53.7211C411.666 52.218 411.672 50.7134 411.633 49.2106C411.603 48.0667 411.575 46.9095 411.105 45.8757C409.409 42.1378 404.669 44.2148 402.232 45.4667C400.948 46.1256 399.673 46.8894 398.518 47.8278C396.38 49.5642 394.305 51.3811 392.095 52.9926C389.716 54.7263 387.251 56.3007 384.687 57.6154C382.152 58.9156 379.519 59.8368 376.848 60.6531C371.41 62.3147 365.783 63.6679 360.138 63.3527C357.622 63.2122 355.067 62.7548 352.793 61.4066C350.749 60.1943 349.012 58.4455 347.376 56.5778C345.607 54.5583 343.965 52.3161 342.001 50.5542C339.984 48.7444 337.602 47.603 335.147 46.9331C332.561 46.2276 329.907 45.9993 327.27 45.7296C324.143 45.4095 321.016 45.0675 317.879 44.9009C316.346 44.8168 314.812 44.7853 313.277 44.8063C312.127 44.824 312.124 46.9419 313.277 46.9239Z" fill="#1B1464"/>
<path d="M411.766 88.4756L414.645 75.7565C415.345 72.6624 413.794 69.4817 411.18 68.6527C408.567 67.8236 405.88 69.6599 405.179 72.7541L402.301 85.4732C395.662 85.8946 389.713 91.2853 387.898 99.2997C387.365 101.648 387.226 104.097 387.487 106.509L415.71 115.461C416.956 113.528 417.869 111.324 418.399 108.975C420.213 100.961 417.337 92.7705 411.766 88.4759V88.4756Z" fill="#5E47A8"/>
<path d="M414.064 229.449H303.186C298.841 229.449 295.314 225.273 295.314 220.129H421.356V220.817C421.356 225.581 418.089 229.449 414.064 229.449Z" fill="white"/>
<path d="M414.064 228.391H304.981C304.447 228.391 303.913 228.392 303.378 228.391C301.332 228.386 299.424 227.491 298.026 225.692C296.854 224.186 296.208 222.173 296.208 220.13L295.314 221.189H416.239C417.865 221.189 419.518 221.291 421.142 221.189C421.213 221.184 421.285 221.189 421.356 221.189L420.462 220.13C420.462 222.164 420.123 224.078 418.979 225.671C417.742 227.395 415.97 228.364 414.064 228.391C412.914 228.407 412.911 230.524 414.064 230.508C416.415 230.475 418.705 229.298 420.243 227.168C421.706 225.144 422.25 222.75 422.25 220.13C422.25 219.557 421.84 219.071 421.356 219.071H300.43C298.797 219.071 297.16 219.035 295.528 219.071C295.456 219.073 295.385 219.071 295.313 219.071C294.83 219.071 294.419 219.556 294.419 220.13C294.419 224.792 297.169 229.022 300.991 230.18C301.907 230.457 302.832 230.508 303.767 230.508H409.021C410.632 230.508 412.248 230.546 413.86 230.508C413.928 230.506 413.996 230.508 414.064 230.508C415.215 230.508 415.217 228.391 414.064 228.391Z" fill="#1B1464"/>
<path d="M330.058 229.449H418.168C420.219 229.449 421.993 227.756 422.427 225.382L436.592 147.899C437.18 144.684 435.111 141.649 432.333 141.649H349.625C348.63 141.649 347.664 142.052 346.889 142.792C346.114 143.532 345.577 144.564 345.366 145.716L330.058 229.449Z" fill="white"/>
<path d="M330.058 230.508H415.184C416.139 230.508 417.094 230.513 418.049 230.508C420.722 230.495 422.798 228.35 423.355 225.306L424.227 220.537L425.899 211.388L428.099 199.356L430.541 185.997L432.975 172.682L435.118 160.963L436.695 152.339C436.941 150.994 437.191 149.65 437.432 148.304C438.149 144.3 435.692 140.605 432.212 140.59C431.205 140.585 430.199 140.59 429.193 140.59H349.845C347.222 140.59 345.031 142.581 344.466 145.641C344.214 147.007 343.966 148.375 343.716 149.742L342.191 158.081L340.111 169.459L337.716 182.564L335.238 196.116L332.913 208.833L330.983 219.393L329.663 226.615L329.196 229.167C328.953 230.496 330.677 231.064 330.921 229.73L331.413 227.037L332.738 219.79L334.668 209.235L336.985 196.558L339.441 183.127L341.816 170.135L343.883 158.827L345.415 150.452L346.182 146.255C346.408 145.018 346.916 143.937 347.866 143.276C348.504 142.831 349.197 142.707 349.919 142.707H429.105C430.131 142.707 431.156 142.703 432.182 142.707C434.57 142.716 436.18 145.154 435.679 147.895L434.857 152.39L433.236 161.26L431.081 173.047L428.659 186.297L426.235 199.554L424.076 211.361L422.449 220.263L421.619 224.805C421.402 225.991 420.946 227.062 420.049 227.734C419.387 228.23 418.664 228.391 417.899 228.391H330.058C328.907 228.391 328.905 230.508 330.058 230.508H330.058Z" fill="#1B1464"/>
<path d="M382.731 191.533H388.17C389.879 191.533 391.495 189.877 391.761 187.854L392.486 182.335C392.752 180.312 391.571 178.656 389.862 178.656H384.423C382.714 178.656 381.098 180.312 380.832 182.335L380.107 187.854C379.841 189.877 381.022 191.533 382.731 191.533Z" fill="#5E47A8"/>
<path d="M50.8217 212.314C55.5668 201.012 19.0048 197.553 27.0023 178.669C28.3168 175.565 32.2229 179.281 33.3177 175.383C35.2767 168.408 22.9969 159.579 19.6259 155.56C17.998 153.619 17.1448 152.862 17.9017 150.24C19.5328 144.59 28.0317 146.471 27.5109 141.91C27.1478 138.73 21.6395 135.23 19.8462 133.091C15.7927 128.255 7.6522 119.527 17.3967 117.431C30.2418 114.669 46.9197 138.325 50.057 151.041C50.057 151.041 57.795 172.616 59.2007 184.598C60.6065 196.58 61.4499 203.569 61.4499 203.569" fill="white"/>
<path d="M51.5941 212.849C52.0619 211.722 52.2566 210.527 52.0482 209.286C51.858 208.153 51.2969 207.143 50.6592 206.292C49.0809 204.185 46.8508 202.747 44.7815 201.433C42.1612 199.769 39.4652 198.278 36.8466 196.609C35.5429 195.779 34.2559 194.907 33.0171 193.946C32.4243 193.483 31.8438 192.999 31.2766 192.493C31.1574 192.387 31.4039 192.614 31.2128 192.434C31.1484 192.374 31.084 192.314 31.0202 192.253C30.8858 192.125 30.7522 191.996 30.6204 191.864C30.3693 191.614 30.1237 191.356 29.884 191.09C29.4158 190.575 28.9769 190.024 28.5702 189.44C28.5233 189.372 28.4777 189.303 28.4312 189.235C28.2935 189.034 28.5305 189.4 28.4032 189.191C28.3129 189.043 28.2204 188.897 28.1328 188.746C27.9607 188.451 27.8003 188.146 27.6519 187.832C27.5103 187.533 27.3895 187.223 27.2664 186.913C27.2175 186.79 27.3368 187.123 27.2956 186.995C27.2801 186.947 27.2622 186.901 27.2467 186.853C27.2223 186.776 27.1966 186.699 27.1731 186.622C27.0246 186.139 26.911 185.642 26.8335 185.136C26.8213 185.055 26.8132 184.972 26.7992 184.891C26.7748 184.748 26.8195 185.131 26.7965 184.863C26.7795 184.674 26.7665 184.486 26.7575 184.297C26.7429 183.941 26.7459 183.585 26.7664 183.23C26.7766 183.052 26.7948 182.876 26.8097 182.699C26.8216 182.556 26.7802 182.921 26.8007 182.778C26.8073 182.733 26.8115 182.688 26.818 182.643C26.8329 182.541 26.8466 182.439 26.863 182.337C26.9939 181.519 27.2104 180.729 27.4745 179.959C27.5225 179.819 27.411 180.129 27.4638 179.99C27.4826 179.941 27.5004 179.891 27.5189 179.842C27.5568 179.741 27.5956 179.642 27.6349 179.543C27.7294 179.305 27.823 179.064 27.9518 178.849C27.8621 178.999 28.0284 178.76 28.0681 178.712C28.1802 178.577 28.0893 178.682 28.0574 178.71C28.0949 178.677 28.1364 178.643 28.1772 178.615C28.2327 178.577 28.4652 178.456 28.283 178.536C28.3957 178.487 28.5099 178.446 28.6274 178.415C28.6885 178.398 28.9622 178.362 28.7541 178.383C28.8552 178.373 28.9556 178.362 29.057 178.357C29.2791 178.348 29.5013 178.349 29.7233 178.359C30.1589 178.374 30.5951 178.41 31.0309 178.386C32.1227 178.326 33.1024 177.883 33.7362 176.782C34.2597 175.873 34.4622 174.644 34.4163 173.556C34.3235 171.353 33.3615 169.352 32.2509 167.64C29.6503 163.632 26.1514 160.581 22.8466 157.445C22.1963 156.828 21.5473 156.207 20.9245 155.551C20.2105 154.799 19.4568 153.996 18.8799 153.093C18.9416 153.19 18.7937 152.937 18.7639 152.88C18.7047 152.768 18.6515 152.652 18.6047 152.532C18.6697 152.702 18.571 152.395 18.5567 152.328C18.5428 152.265 18.531 152.201 18.5212 152.136C18.5543 152.35 18.5183 152.034 18.5177 152.01C18.5031 151.487 18.6763 150.722 18.8355 150.287C18.8086 150.361 18.9216 150.082 18.9434 150.033C19.0395 149.819 19.1487 149.614 19.2702 149.419C19.3495 149.289 19.1831 149.543 19.2693 149.421C19.3095 149.364 19.3498 149.307 19.3915 149.252C19.5248 149.076 19.6682 148.91 19.819 148.754C19.8545 148.718 20.0796 148.506 19.9305 148.64C20.031 148.55 20.1347 148.464 20.2403 148.382C20.5951 148.105 20.9725 147.87 21.3595 147.662C21.4072 147.637 21.4552 147.612 21.5029 147.587C21.6299 147.521 21.3783 147.647 21.5071 147.585C21.6045 147.538 21.7026 147.492 21.801 147.447C22.0109 147.352 22.2229 147.262 22.4357 147.176C23.2511 146.848 24.0832 146.582 24.9022 146.267C26.2712 145.739 28.0067 144.95 28.3525 143.07C28.8101 140.583 27.0008 138.493 25.5495 137.039C24.6109 136.099 23.6152 135.242 22.6251 134.38C21.8091 133.67 21.1988 133.186 20.4779 132.341C19.105 130.732 17.7211 129.126 16.4507 127.401C16.1249 126.962 15.8098 126.511 15.5059 126.05C15.5796 126.162 15.4144 125.906 15.381 125.853C15.3124 125.745 15.2447 125.635 15.178 125.525C15.0316 125.284 14.8903 125.038 14.7543 124.788C14.5194 124.361 14.307 123.917 14.1184 123.459C14.076 123.355 14.0353 123.249 13.9962 123.143C13.9428 122.999 14.0504 123.306 14.0036 123.161C13.9869 123.109 13.9693 123.058 13.9529 123.005C13.8853 122.792 13.8275 122.575 13.7797 122.354C13.7586 122.255 13.7416 122.154 13.7231 122.054C13.6691 121.762 13.7165 122.142 13.7082 121.967C13.6968 121.753 13.6924 121.538 13.6951 121.324C13.7001 121.034 13.6614 121.426 13.6977 121.26C13.7171 121.171 13.7278 121.08 13.7481 120.991C13.7684 120.902 13.7982 120.816 13.8194 120.728C13.8605 120.558 13.8092 120.761 13.797 120.788C13.825 120.726 13.8486 120.662 13.8772 120.6C13.9163 120.516 13.9601 120.436 14.0042 120.355C14.0266 120.314 14.0522 120.275 14.0764 120.235C14.0576 120.266 13.947 120.401 14.0561 120.274C14.1938 120.113 14.3205 119.949 14.4699 119.801C14.5701 119.703 14.353 119.9 14.4625 119.809C14.5036 119.775 14.5444 119.741 14.5862 119.707C14.6735 119.638 14.763 119.573 14.8539 119.51C14.9508 119.444 15.0492 119.382 15.1491 119.322C15.1866 119.3 15.4871 119.137 15.387 119.187C15.9481 118.907 16.5452 118.719 17.1391 118.567C17.4602 118.485 17.7837 118.416 18.1089 118.361C18.0732 118.367 17.9336 118.386 18.1101 118.363C18.2299 118.347 18.3499 118.332 18.47 118.32C19.379 118.227 20.2931 118.262 21.1979 118.393C21.2298 118.398 21.3735 118.422 21.208 118.395C21.3741 118.423 21.5398 118.454 21.705 118.488C21.9417 118.537 22.1773 118.593 22.4119 118.655C22.8764 118.777 23.3367 118.923 23.7914 119.089C24.2734 119.266 24.7497 119.463 25.2194 119.681C25.6929 119.901 25.9692 120.043 26.4784 120.328C28.4539 121.432 30.308 122.828 32.0547 124.377C33.8122 125.934 35.584 127.809 37.1862 129.712C38.8551 131.697 40.424 133.797 41.8848 136C43.2339 138.035 44.4828 140.16 45.6255 142.365C46.163 143.402 46.671 144.461 47.1487 145.538C47.3757 146.052 47.5943 146.57 47.8043 147.093C47.9462 147.446 48.0835 147.803 48.216 148.161C48.2374 148.219 48.2592 148.278 48.2804 148.336C48.2887 148.359 48.3737 148.595 48.3296 148.471C48.5892 149.199 48.9097 150.28 49.1539 151.166C49.1936 151.31 49.2377 151.448 49.2875 151.587L49.2278 151.42L49.3471 151.756C49.7572 152.922 50.1593 154.091 50.5537 155.264C52.0747 159.781 53.5105 164.34 54.8134 168.951C56.2265 173.953 57.5807 179.066 58.2637 184.29C59.0147 190.033 59.6226 195.806 60.311 201.56C60.4025 202.323 60.4937 203.087 60.5859 203.851C60.6541 204.417 61.2626 204.728 61.686 204.59C62.2003 204.423 62.3791 203.856 62.3106 203.288C61.9245 200.087 61.5447 196.886 61.1654 193.684C60.7567 190.234 60.4126 186.765 59.9341 183.327C59.585 180.818 59.0675 178.343 58.4936 175.895C57.2512 170.597 55.7209 165.393 54.0901 160.246C53.1116 157.159 52.0953 154.086 51.0187 151.044C50.9681 150.901 50.8566 150.68 50.8425 150.549C50.8395 150.535 50.8346 150.521 50.8279 150.508C50.9818 150.815 50.8813 150.613 50.8479 150.484C50.8169 150.364 50.785 150.245 50.7525 150.126C50.4699 149.093 50.1279 148.086 49.7603 147.092C48.961 144.933 47.9957 142.861 46.9433 140.862C44.472 136.167 41.5074 131.795 38.1871 127.904C34.9657 124.129 31.3088 120.642 27.1704 118.384C23.4539 116.356 19.1414 115.298 15.1804 117.022C13.4452 117.777 11.8523 119.257 11.9003 121.643C11.9444 123.828 13.0964 125.804 14.1864 127.466C15.4159 129.341 16.8332 131.029 18.2511 132.702C18.8727 133.436 19.478 134.176 20.1681 134.821C21.0774 135.671 22.0249 136.461 22.9506 137.285C23.8343 138.072 24.7564 138.94 25.5408 139.929C25.9165 140.402 26.0783 140.623 26.3425 141.167C26.3953 141.276 26.4424 141.386 26.4892 141.498C26.5503 141.643 26.4415 141.345 26.4895 141.493C26.5071 141.548 26.5244 141.603 26.5402 141.658C26.5709 141.767 26.5908 141.877 26.6165 141.986C26.671 142.22 26.626 141.859 26.6335 142.128C26.6362 142.221 26.6347 142.313 26.6362 142.405C26.6412 142.695 26.688 142.258 26.6323 142.476C26.6117 142.555 26.594 142.634 26.5792 142.714C26.5452 142.913 26.6707 142.546 26.5613 142.764C26.5291 142.829 26.4823 142.9 26.4582 142.968C26.4206 143.076 26.5822 142.819 26.4421 142.991C26.3938 143.051 26.3476 143.111 26.2969 143.168C26.2417 143.229 26.0104 143.419 26.2283 143.247C25.9415 143.473 25.6517 143.658 25.3408 143.835C25.2096 143.909 25.4827 143.773 25.2507 143.878C25.1661 143.917 25.0814 143.956 24.9961 143.993C24.8074 144.075 24.6172 144.151 24.4258 144.225C22.7279 144.879 20.9212 145.346 19.4004 146.504C18.6158 147.102 17.9181 147.877 17.4542 148.844C16.883 150.034 16.5133 151.637 16.8535 152.985C17.1987 154.354 18.1841 155.357 19.0111 156.33C19.5292 156.939 20.0876 157.499 20.6505 158.049C22.1966 159.558 23.7905 160.999 25.3318 162.516C27.0213 164.18 28.6814 165.916 30.1243 167.884C30.7579 168.748 31.2423 169.487 31.7566 170.546C31.9146 170.871 32.0591 171.205 32.1898 171.546C32.2613 171.73 32.2038 171.58 32.1904 171.542C32.2196 171.624 32.2473 171.707 32.2739 171.791C32.4161 172.234 32.5154 172.684 32.5932 173.148C32.6349 173.398 32.5899 172.999 32.6117 173.314C32.6191 173.422 32.6263 173.529 32.6292 173.638C32.6335 173.865 32.6276 174.093 32.6117 174.319C32.5956 174.588 32.6456 174.17 32.597 174.435C32.5777 174.54 32.5619 174.645 32.5398 174.749C32.4879 174.994 32.4068 175.272 32.3505 175.397C32.2965 175.522 32.2349 175.641 32.1659 175.755C32.2539 175.615 32.081 175.852 32.0419 175.898C31.9271 176.034 32.0163 175.931 32.0485 175.902C31.9989 175.945 31.9476 175.985 31.8946 176.021C31.8529 176.051 31.8094 176.076 31.7667 176.103C31.674 176.161 31.9078 176.053 31.7465 176.112C31.6532 176.146 31.561 176.181 31.4653 176.207C31.4066 176.223 31.1359 176.264 31.3347 176.241C31.1028 176.268 30.8711 176.278 30.6383 176.275C29.7347 176.267 28.7836 176.107 27.9071 176.452C26.8854 176.853 26.3455 177.764 25.9311 178.884C25.3423 180.474 24.949 182.165 24.9583 183.913C24.9666 185.47 25.299 186.98 25.8738 188.375C27.0634 191.264 29.2523 193.449 31.4445 195.241C33.9124 197.26 36.5983 198.881 39.2729 200.475C41.7772 201.968 44.3331 203.397 46.6946 205.196C46.9498 205.39 47.2016 205.59 47.4501 205.796C47.6177 205.935 47.7834 206.077 47.9471 206.222C48.0365 206.302 48.1418 206.405 47.9831 206.254C48.3931 206.644 48.7944 207.043 49.1605 207.491C49.3218 207.689 49.4696 207.898 49.6202 208.107C49.7454 208.28 49.495 207.896 49.6041 208.081C49.6342 208.132 49.667 208.182 49.6977 208.233C49.7648 208.346 49.8295 208.46 49.8903 208.577C49.9973 208.784 50.0707 209.014 50.1759 209.22C50.0099 208.895 50.1667 209.197 50.2031 209.324C50.2373 209.442 50.2671 209.563 50.2922 209.685C50.3143 209.792 50.3238 209.904 50.3467 210.01C50.3733 210.133 50.3292 209.704 50.3369 209.934C50.3387 209.99 50.3453 210.045 50.3479 210.1C50.3512 210.171 50.3104 210.759 50.3301 210.773C50.2898 210.744 50.3804 210.454 50.3357 210.706C50.3256 210.763 50.3178 210.821 50.3074 210.878C50.2844 211.003 50.2567 211.127 50.2248 211.249C50.1935 211.369 50.1542 211.485 50.1193 211.604C50.0567 211.817 50.218 211.37 50.1294 211.575C50.1005 211.641 50.076 211.711 50.0483 211.778C49.8351 212.291 49.9314 212.923 50.3691 213.227C50.7632 213.499 51.3789 213.362 51.5929 212.847L51.5941 212.849Z" fill="#1B1464"/>
<path d="M64.2034 229.424H41.1761L35.9305 204.001H69.4491L64.2034 229.424Z" fill="#5F47A8"/>
</g>
<g clip-path="url(#clip1_46_1249)">
<path d="M291.732 118.569C291.421 118.11 291.69 115.629 291.729 114.67C291.784 113.348 292.089 111.975 291.766 110.632C291.437 109.263 290.618 108.208 290.373 106.78C290.126 105.346 290.311 103.745 290.475 102.287C291.126 96.4921 292.839 91.2203 292.839 85.2252C292.839 83.0745 292.362 78.9981 293.331 77.2072C295.441 73.3104 296.809 79.5821 297.046 81.1795C297.446 83.8679 297.511 86.5121 297.511 89.2954C297.511 90.5351 297.406 91.8488 297.511 93.082C297.563 93.6887 297.592 94.2713 297.849 94.8297C298.29 95.7868 298.039 95.849 298.768 95.4116C300.723 94.239 301.395 89.7253 302.436 87.7256C303.809 85.0854 305.115 82.0862 306.859 79.7151C308.56 77.4024 310.267 75.0419 311.899 72.5786C313.657 69.9269 315.081 67.1541 317.294 64.9405C318.418 63.8158 320.646 62.0708 321.213 64.3902C321.7 66.378 320.833 68.9144 320.027 70.6122C320.971 68.339 322.789 64.634 325.298 64.8279C328.328 65.0619 325.844 70.1564 324.954 71.6831C321.927 76.8739 320.207 82.9408 317.31 88.2357C316.241 90.1902 315.028 92.8273 314.491 94.9852C315.491 95.0018 316.735 92.8752 317.429 92.0624C318.419 90.9034 319.381 89.8352 320.258 88.5595C321.943 86.1067 323.654 83.7955 325.541 81.5794C326.48 80.4772 331.117 76.0546 331.104 79.9813C331.096 82.684 328.974 84.9572 327.511 86.8189C325.812 88.9783 324.22 91.2531 322.744 93.6316C321.763 95.2093 319.09 97.961 319.169 99.9447C320.017 99.9447 321.393 98.8966 322.224 98.4381C323.356 97.8147 324.478 97.2713 325.544 96.4676C326.395 95.8266 330.789 91.3469 330.953 94.8294C331.065 97.1971 326.674 100.331 325.421 101.562C323.437 103.511 321.541 105.636 319.397 107.322C318.586 107.959 317.495 108.423 316.815 109.252C315.973 110.279 316.346 111.222 316.053 112.626C315.458 115.478 313.266 116.525 312.115 118.861C311.045 121.036 311.902 123.664 311.897 126.11C311.891 128.636 312.242 131.152 312.124 133.697C307.089 131.852 301.428 132.569 296.282 131.354C295.241 131.108 294.138 130.844 293.086 130.69C291.372 130.439 291.602 130.438 291.613 128.48C291.628 125.741 291.509 122.704 291.736 120.026C291.783 119.464 291.836 118.957 291.837 118.391C291.941 118.296 291.66 118.356 291.732 118.569ZM179.507 98.015C183.121 95.9857 193.465 88.7047 194.882 85.9054C196.061 83.5751 198.641 80.0793 199.806 79.4661C200.817 78.9339 205.447 77.6201 206.412 77.3245L205.034 51.2198C204.678 51.3382 204.31 51.4153 203.931 51.4409C200.458 51.6765 197.443 47.7478 197.197 42.6655C197.054 39.7067 197.882 37.0111 199.283 35.227C197.865 34.5145 196.978 33.4674 197.629 31.2942C197.891 30.5596 198.466 30.1624 198.431 29.4478C198.066 28.0392 197.125 27.0277 196.464 25.6391C195.768 23.536 197.476 21.9866 198.592 20.4772C198.871 20.0997 199.115 19.008 199.097 18.6509C197.461 15.5364 197.828 10.8526 201.087 10.6312C202.255 10.1935 203.805 11.5219 204.938 10.3697C205.479 9.25794 205.079 7.13475 206.229 6.33996C206.804 5.94239 207.38 5.54516 207.658 5.16766C208.079 4.78865 208.586 4.56705 209.114 4.53125C209.641 4.49544 210.166 4.64705 210.621 4.96667C210.951 5.66114 211.596 6.69229 212.188 6.65216C213.948 6.17433 213.845 4.03108 214.368 2.56188C216.041 0.297892 218.742 0.831155 220.589 2.13949C221.826 3.13051 222.26 5.96824 223.707 5.15338C224.578 4.73575 224.771 2.57242 225.939 2.13473C228.57 1.23927 230.189 3.99639 231.216 6.79364C231.843 7.4677 233.011 7.03 233.603 6.98987C234.754 6.19508 236.462 4.64562 237.995 5.61658C239.842 6.92492 239.37 9.4654 239.178 11.6287C239.212 12.3433 239.822 12.6602 240.118 12.6402C241.809 10.7333 243.656 12.0416 244.927 13.7472C246.842 16.4842 244.89 19.1254 243.809 21.3492C244.784 23.0748 246.544 22.597 247.798 23.9455C249.713 26.6825 246.054 31.2316 244.61 33.3415L244.526 33.3456C245.895 34.9913 246.826 37.4522 246.962 40.2535C247.214 45.4811 244.604 49.9098 241.131 50.1458C240.655 50.1773 240.178 50.1285 239.713 50.0009L239.579 77.1606C241.182 77.2283 242.19 76.9576 243.76 77.2895C247.022 77.9792 247.985 86.3043 251.191 87.196C253.467 87.8293 277.279 98.1705 273.704 104.261C267.26 115.239 255.619 116.118 245.298 116.473C234.075 116.858 222.943 118.783 211.733 119.191C206.563 119.38 201.455 120.239 196.302 120.571C187.33 121.149 178.385 120.721 169.417 120.611C168.265 120.597 176.222 99.859 179.507 98.015Z" fill="white"/>
<path d="M317.67 125.667C315.954 123.376 313.41 123.132 311.821 122.872C311.959 124.186 312.139 126.772 312.383 127.92C305.509 127.246 300.587 126.894 295.548 122.932C294.169 121.847 292.78 119.548 291.341 118.036C291.073 122.797 288.341 129.194 287.27 135.42C283.348 124.343 289.149 102.451 276.108 96.4364C275.537 96.1728 251.478 87.1964 251.478 87.1964C251.478 87.1964 248.691 94.8199 244.176 96.5595C236.19 99.6363 230.921 102.102 222.59 101.686C220.268 102.073 218.061 101.429 216.035 101.296C202.15 100.38 190.943 91.0024 190.943 91.0024C190.943 91.0024 178.72 96.4945 173.823 100.639C170.27 103.645 165.376 106.788 164.245 111.216C161.754 120.97 162.037 132.24 160.06 143.46C158.359 153.093 156.365 158.912 153.609 167.899C151.217 175.681 149.884 184.476 146.284 193.53C145.147 196.389 141.283 206.199 141.407 208.253C141.664 212.52 142.016 217.144 143.753 220.982C145.603 225.067 148.84 227.319 152.488 228.812C153.856 229.372 167.573 229.028 182.284 229.241C182.284 229.241 274.615 229.696 274.593 229.243C275.799 229.051 291.948 229.555 298.844 228.836C300.094 228.705 301.246 229.081 302.307 228.623C314.845 223.218 314.779 195.762 314.708 182.159C314.658 172.705 314.686 162.878 314.902 153.933C315.1 145.718 316.121 136.306 317.67 125.667Z" fill="#8E6FE9"/>
<path d="M292.908 109.442C292.669 109.326 292.364 107.805 292.273 107.44C292 106.341 291.818 105.198 291.702 104.062C291.422 101.322 292.113 98.3014 292.477 95.6014C292.69 94.0237 293.042 92.5263 293.405 90.9918C293.798 89.3349 293.724 87.5691 293.804 85.8666C293.907 83.6775 293.967 81.4465 294.115 79.2604C294.163 78.553 294.261 77.4354 294.805 76.9947C295.371 76.5362 295.633 77.7966 295.75 78.2047C296.277 80.0439 296.41 82.0692 296.503 83.9961C296.601 86.0156 296.516 88.0861 296.36 90.097C296.187 92.3195 295.742 95.1606 296.862 97.1458C297.133 97.625 297.605 97.7807 298.041 97.5117C300.923 95.734 302.173 91.4377 303.67 88.3095C304.569 86.4291 305.694 84.678 306.758 82.9265C309.562 78.3088 312.441 73.7223 315.506 69.3409C316.562 67.8316 318.416 64.8354 320.108 65.1846C320.839 65.3356 319.544 67.8455 319.398 68.157C318.366 70.3561 317.028 72.3323 315.986 74.5276C313.692 79.3641 311.486 84.2253 308.953 88.9139C308.702 89.3848 308.441 89.8488 308.171 90.3055C307.528 91.3822 309.023 92.4001 309.659 91.3353C312.222 87.0454 314.525 82.3514 316.595 77.7065C317.216 76.3145 317.758 74.917 318.48 73.5839C319.51 71.6794 320.658 69.8687 321.488 67.8217C322.401 65.5693 322.151 63.2573 319.701 63.0978C317.745 62.9706 316 65.5598 314.815 67.1609C313.547 68.875 312.379 70.7009 311.202 72.5034C308.292 76.9627 305.367 81.4587 302.76 86.1771C301.058 89.2567 300.099 93.9431 297.171 95.7494L298.35 96.1153C297.677 94.9243 297.869 93.2252 297.948 91.8679C298.043 90.2127 298.175 88.5812 298.212 86.9209C298.26 84.7892 298.186 82.7371 297.944 80.6197C297.756 78.9791 297.476 76.121 296.097 75.183C294.548 74.1287 293.146 75.6931 292.669 77.3623C292.037 79.5763 292.48 82.0454 292.21 84.3233C291.968 86.3557 292.149 88.4469 291.744 90.4483C291.303 92.629 290.845 94.724 290.573 96.9543C290.204 99.9838 289.752 102.726 290.185 105.752C290.442 107.542 290.82 110.623 292.45 111.408C293.48 111.905 293.923 109.931 292.908 109.442Z" fill="#1B1464"/>
<path d="M312.112 86.7094C314.29 82.981 316.555 79.3236 318.768 75.6244C319.759 73.9672 320.753 72.3102 321.704 70.6196C322.637 68.9614 323.338 66.898 324.799 65.7812C325.904 64.9367 326.168 66.5777 325.956 67.4976C325.698 68.6128 325.093 69.6354 324.573 70.5986C323.207 73.1295 322.09 75.8554 320.957 78.5428C319.867 81.1288 318.705 83.6734 317.55 86.2183C316.932 87.5786 316.311 88.9363 315.664 90.2776C314.887 91.8886 313.926 93.3473 313.328 95.0695C313.083 95.7762 313.81 96.5713 314.388 96.3244C317.692 94.9131 319.86 90.9476 322.148 88.0204C323.561 86.2139 325.041 84.4614 326.595 82.8249C327.243 82.1433 327.81 81.3944 328.408 80.6534C328.879 80.0698 331.117 78.3044 330.602 80.3582C330.391 81.203 329.839 81.9858 329.404 82.6851C328.598 83.9812 327.781 85.2398 326.878 86.4448C325.87 87.7892 324.809 89.0778 323.779 90.399C322.497 92.0444 321.238 93.7166 320.039 95.4477C319.192 96.6693 318.213 97.9783 317.764 99.4921C317.665 99.825 317.777 100.246 317.985 100.485C319.109 101.776 321.127 100.315 322.213 99.6536C323.798 98.6874 325.247 97.4019 326.853 96.4911C327.811 95.9473 328.635 95.0947 329.588 94.526C330.514 93.973 330.43 94.6407 330.069 95.3637C329.12 97.2634 327.314 98.7347 325.859 100.038C322.765 102.808 319.121 104.994 316.275 108.125C315.485 108.994 315.205 110.278 315.015 111.487C314.846 112.558 314.732 113.559 314.283 114.528C313.808 115.552 313.026 116.393 312.367 117.248C311.415 118.481 310.847 119.64 310.678 121.305C310.49 123.155 311.007 125.06 311.083 126.903C311.136 128.213 312.859 128.219 312.805 126.903C312.735 125.181 312.391 123.497 312.381 121.769C312.367 119.47 314.195 118.129 315.248 116.448C316.304 114.76 316.462 113.062 316.842 111.072C317.05 109.981 317.575 109.427 318.28 108.799C321.781 105.679 325.587 103.081 328.94 99.7196C330.133 98.5238 331.455 97.1165 331.976 95.3164C332.609 93.131 330.784 91.8305 329.185 92.5243C327.504 93.2538 325.886 94.7349 324.345 95.8446C323.358 96.5554 322.364 97.2526 321.343 97.8919C320.859 98.1953 320.364 98.4772 319.851 98.7075C319.656 98.7952 319.455 98.8602 319.252 98.92C318.976 99.0016 318.981 98.786 319.204 99.0421L319.425 100.035C319.929 98.3368 321.318 96.7778 322.283 95.4409C323.525 93.7204 324.821 92.0532 326.129 90.4021C327.74 88.3677 329.333 86.3292 330.691 84.0431C331.478 82.7174 333.141 80.385 332.211 78.6424C331.082 76.5274 329.037 77.3194 327.7 78.6342C326.913 79.4079 326.326 80.4248 325.546 81.2077C324.773 81.9828 324.05 82.8303 323.327 83.6686C321.743 85.5055 320.269 87.4276 318.852 89.4427C317.597 91.2278 315.81 93.5534 313.93 94.356L314.99 95.6109C315.719 93.5115 317.027 91.5989 317.958 89.6076C318.554 88.333 319.13 87.0454 319.711 85.7609C320.971 82.9721 322.209 80.1735 323.363 77.3208C324.488 74.5399 326.067 72.0487 327.201 69.2797C328.065 67.1691 328.126 64.2446 325.771 63.5869C323.748 63.0217 322.165 65.872 321.266 67.5551C320.331 69.3055 319.396 71.0295 318.391 72.7279C315.824 77.0627 313.168 81.3233 310.625 85.6775C309.991 86.7648 311.485 87.7837 312.112 86.7094ZM298.586 98.2681C300.299 99.0591 301.842 100.095 303.1 101.705C304.416 103.389 305.911 105.813 305.412 108.209C305.146 109.487 306.807 110.028 307.073 108.751C308.267 103.017 302.957 98.1075 299.044 96.3C298.008 95.8218 297.563 97.7957 298.586 98.2681ZM217.315 30.7337C216.106 31.1408 214.845 30.3756 213.61 30.3729C213.019 30.3715 212.409 30.6895 211.86 30.9157C211.117 31.2214 210.377 31.5336 209.632 31.8308C209.281 31.971 208.928 32.1022 208.573 32.2284C207.976 32.4403 207.769 32.193 208.272 32.6967C207.429 31.8533 206.204 33.2895 207.054 34.1397C208.061 35.1471 210.223 33.7513 211.244 33.3296C211.959 33.0344 212.669 32.7056 213.398 32.462C214.209 32.1913 215.208 32.7076 216.015 32.862C216.627 32.979 217.184 32.8994 217.773 32.7015C218.84 32.342 218.386 30.3732 217.315 30.7337ZM224.589 31.1496C223.855 32.6182 223.106 33.1426 223.108 34.8767C223.109 36.6499 223.328 38.4354 223.482 40.1961C223.658 42.2009 223.83 44.2071 223.904 46.2215C223.937 47.0626 223.931 47.9052 223.888 48.7456C223.859 49.2619 223.701 50.5141 223.299 49.9747C222.563 48.9861 221.349 50.4349 222.081 51.4177C223.104 52.79 225.087 51.7595 225.433 50.2237C225.875 48.2627 225.641 46.0127 225.512 44.0231C225.361 41.6928 225.117 39.3727 224.94 37.0451C224.875 36.1898 224.819 35.3294 224.834 34.47C224.848 33.6449 225.717 32.9001 226.076 32.1805C226.643 31.0445 225.154 30.0185 224.589 31.1496Z" fill="#1B1464"/>
<path d="M203.253 35.0328C203.299 31.0517 203.698 27.0284 205.317 23.4769C206.981 19.8287 210.044 17.4763 213.227 15.9989C220.541 12.6038 228.263 13.4136 234.69 18.8775C235.595 19.6464 236.453 17.8752 235.56 17.1155C232.182 14.2441 228.33 12.4878 224.201 11.9253C220.05 11.3597 215.726 12.5671 211.905 14.444C208.572 16.0812 205.646 18.7135 203.83 22.4467C201.996 26.2163 201.58 30.765 201.531 35.0328C201.515 36.3493 203.238 36.3476 203.253 35.0328ZM232.457 31.0279C233.781 32.7518 236.497 32.4825 238.281 32.6508C239.389 32.7556 239.381 30.714 238.281 30.6103C237.497 30.5361 236.712 30.5008 235.929 30.4066C235.235 30.3229 234.176 30.2372 233.675 29.5849C232.926 28.6099 231.712 30.057 232.457 31.0279ZM215.916 37.1081C215.472 35.3876 214.369 34.7431 212.915 35.0893C212.257 35.2457 211.624 35.6188 211.038 35.9919C210.77 36.1657 210.508 36.3508 210.252 36.5469C210.189 36.5945 209.82 36.8411 209.965 36.7867C209.421 36.9911 209.653 38.0076 210.201 37.8022C210.817 37.5713 211.397 36.9394 211.98 36.6003C213.144 35.9246 214.59 35.5722 215.059 37.388C215.226 38.0352 216.084 37.759 215.916 37.1081Z" fill="#1B1464"/>
<path d="M213.202 35.5675C212.394 35.6544 211.816 36.7173 211.91 37.9416C212.004 39.1659 212.735 40.0879 213.542 40.001C214.349 39.9141 214.928 38.8511 214.834 37.6269C214.74 36.4026 214.009 35.4805 213.202 35.5675Z" fill="#1B1464"/>
<path d="M216.093 38.1385C214.802 38.3123 212.479 38.4106 210.783 38.4984C211.688 41.6745 214.252 40.6114 216.345 39.7536C216.115 39.184 215.847 38.6915 216.093 38.1385Z" fill="white"/>
<path d="M204.361 35.3175C202.668 33.7082 200.613 34.2523 198.892 35.5515C196.929 37.0339 196.071 39.8023 195.998 42.4516C195.839 48.1699 200.064 51.3794 204.283 52.2656C205.37 52.4938 205.834 50.5274 204.741 50.2979C201.809 49.682 199.053 48.2886 198.029 44.7119C197.416 42.572 197.752 40.308 198.776 38.4412C199.546 37.0377 201.853 35.5335 203.143 36.7605C204.001 37.5754 205.228 36.1412 204.361 35.3175ZM226.011 54.4341C221.638 57.5153 216.284 54.3956 214.736 48.9239C214.385 47.6829 212.721 48.2151 213.075 49.4663C214.969 56.1624 221.517 59.9755 226.88 56.1961C227.833 55.5244 226.968 53.7597 226.011 54.4341Z" fill="#1B1464"/>
<path d="M203.728 51.1021C203.62 53.848 203.92 56.6518 204.138 59.3807C204.258 60.8869 204.367 62.4027 204.575 63.896C204.799 65.5105 205.707 66.9875 206.433 68.3305C209.385 73.7873 214.814 76.7182 219.872 78.6278C222.614 79.663 225.04 79.5239 227.629 77.9952C229.665 76.7927 231.354 75.1517 233.028 73.3547C234.437 71.8433 235.764 70.2092 237.217 68.7587C239.571 66.4103 239.317 62.9866 239.788 59.7204C239.974 58.4338 238.314 57.8829 238.127 59.178C237.709 62.0786 238.017 65.1816 235.999 67.3157C234.758 68.6288 233.561 69.9997 232.338 71.3383C230.967 72.8398 229.606 74.2695 228.001 75.4071C226.65 76.3648 225.259 77.2015 223.666 77.3521C222.415 77.4705 221.107 76.9532 219.931 76.509C215.21 74.7266 210.407 71.896 207.677 66.8501C206.966 65.5353 206.306 64.2508 206.15 62.6673C206.013 61.2398 205.89 59.8104 205.781 58.3794C205.596 55.9784 205.356 53.5154 205.451 51.1008C205.503 49.786 203.78 49.7921 203.728 51.1021ZM204.22 44.3486L204.355 41.6785C204.422 40.3634 202.699 40.3712 202.633 41.6785L202.497 44.3486C202.431 45.6637 204.154 45.6559 204.22 44.3486Z" fill="#1B1464"/>
<path d="M225.006 73.7584L225.142 71.0883C225.208 69.7732 223.486 69.781 223.419 71.0883L223.284 73.7584C223.217 75.0732 224.94 75.0657 225.006 73.7584ZM204.535 63.69L205.723 84.3046C205.798 85.6099 207.522 85.6187 207.446 84.3046L206.258 63.69C206.182 62.3847 204.459 62.3759 204.535 63.69ZM237.955 75.1728C238.325 77.6511 237.65 81.1839 237.994 84.0166C238.152 85.315 239.812 84.7607 239.656 83.4741C239.316 80.6752 240.045 77.5055 239.617 74.6304C239.423 73.336 237.763 73.8863 237.955 75.1728ZM210.311 100.574C211.085 99.4492 211.774 98.2491 212.5 97.0802C213.38 95.6633 214.512 94.5478 215.532 93.2807C216.355 92.2573 217.246 90.9327 218.426 90.5028C219.21 90.2168 219.716 91.304 220.012 91.9665C221.313 94.8726 221.389 98.7418 221.76 101.957C221.91 103.256 223.569 102.701 223.421 101.414C222.977 97.5583 222.918 92.6301 220.699 89.541C219.16 87.3991 216.983 88.8323 215.58 90.3246C214.43 91.5469 213.339 92.927 212.258 94.2346C211.044 95.7028 210.185 97.5447 209.093 99.1313C208.397 100.142 209.608 101.595 210.311 100.574Z" fill="#1B1464"/>
<path d="M249.932 87.6919C249.64 92.2811 244.816 94.8852 241.728 96.3901C238.166 98.1253 234.372 99.2962 230.584 100.093C224.685 101.333 217.937 100.917 211.899 99.757C208.237 99.0531 204.662 97.8862 201.189 96.3493C199.317 95.5209 197.455 94.6774 195.652 93.6514C194.126 92.7824 193.051 92.106 192.257 90.2324C191.758 89.0561 190.272 90.0899 190.769 91.2622C192.227 94.7023 195.452 95.8797 198.305 97.2244C202.252 99.0843 206.258 100.584 210.436 101.516C217.053 102.992 224.225 103.433 230.888 102.092C235.107 101.243 239.292 99.8455 243.223 97.8403C246.857 95.9858 251.322 92.9025 251.654 87.6919C251.738 86.3785 250.015 86.3884 249.932 87.6919ZM200.035 80.4497C201.643 79.6637 203.352 79.241 205.023 78.6921C206.092 78.3408 205.637 76.372 204.565 76.7243C202.894 77.2732 201.185 77.696 199.577 78.4819C198.565 78.9768 199.008 80.952 200.035 80.4497Z" fill="#1B1464"/>
<path d="M239.19 78.5959C240.097 78.4286 240.998 78.4081 241.888 78.7003C242.395 78.8669 241.402 79.7998 241.265 79.96C240.227 81.1724 239.101 82.2862 237.971 83.3762C235.366 85.8912 232.087 86.8999 229.061 88.4847C228.776 88.6337 228.657 89.0319 228.634 89.3656C228.366 93.2868 228.45 97.0424 228.539 100.966C228.569 102.28 230.292 102.283 230.262 100.966C230.173 97.0424 230.089 93.2868 230.357 89.3656L229.93 90.2464C232.15 89.0836 234.474 88.2256 236.636 86.9033C238.346 85.8575 239.826 84.2363 241.259 82.7406C242.075 81.8897 244.355 79.9743 243.852 78.3473C243.14 76.0411 240.368 76.3264 238.731 76.6281C237.637 76.8301 238.103 78.7962 239.19 78.5959Z" fill="#1B1464"/>
<path d="M230.036 90.3552C233.052 92.8698 235.577 96.2051 238.676 98.5837C239.611 99.3016 240.473 97.5345 239.545 96.8217C236.449 94.4455 233.921 91.1078 230.905 88.5932C229.995 87.8338 229.135 89.6039 230.036 90.3552ZM231.256 36.3463C231.541 34.4969 232.845 34.5832 234.101 35.0322C234.758 35.2672 235.419 35.8861 236.083 36.0286C236.643 36.149 236.883 35.1342 236.319 35.0131C236.138 34.9743 235.565 34.5798 235.273 34.4322C234.623 34.1037 233.955 33.8425 233.253 33.7296C231.793 33.4949 230.669 34.3139 230.399 36.0664C230.296 36.7302 231.153 37.0135 231.256 36.3463Z" fill="#1B1464"/>
<path d="M233.026 38.6766C233.836 38.6536 234.473 37.6388 234.448 36.4098C234.423 35.1809 233.746 34.2032 232.936 34.2261C232.125 34.2491 231.488 35.264 231.513 36.4929C231.538 37.7219 232.215 38.6996 233.026 38.6766Z" fill="#1B1464"/>
<path d="M230.312 37.173C231.611 37.171 233.928 36.9543 235.622 36.8118C235.029 40.0896 232.379 39.3805 230.217 38.8119C230.39 38.2147 230.609 37.6893 230.312 37.173Z" fill="white"/>
<path d="M241.897 35.4046C243.303 34.1877 244.925 36.2511 245.568 37.6298C246.397 39.4051 246.342 41.6333 245.91 43.5266C245.19 46.6762 243.504 48.2308 240.803 48.4893C239.704 48.5943 239.695 50.6359 240.803 50.5298C242.506 50.3669 244.046 49.9115 245.388 48.6144C246.851 47.2017 247.562 44.6758 247.847 42.5553C248.192 39.9904 247.642 37.2958 246.291 35.2563C245.101 33.4579 242.748 32.1526 241.027 33.6426C240.14 34.4108 240.998 36.1824 241.897 35.4046Z" fill="#1B1464"/>
<path d="M242.072 42.4951L242.283 39.82C242.327 39.2653 241.858 38.7997 241.422 38.7997C240.919 38.7997 240.604 39.2663 240.56 39.82L240.349 42.4951C240.306 43.0498 240.774 43.5154 241.211 43.5154C241.714 43.5154 242.028 43.0488 242.072 42.4951ZM245.219 34.0629C246.767 31.8278 248.698 29.4955 249.142 26.5425C249.294 25.5324 249.156 23.921 248.407 23.2239C247.199 22.0978 245.372 22.0543 244.418 20.6276L244.553 21.8638C245.339 20.298 246.431 18.6527 246.562 16.7686C246.704 14.7097 245.797 12.9599 244.399 11.7832C243.298 10.8568 241.753 10.1987 240.472 11.0969C239.861 11.5257 240.035 11.6682 240.08 11.1914C240.123 10.7435 240.167 10.2966 240.203 9.84805C240.281 8.88526 240.227 7.93232 239.996 7.00455C239.652 5.62446 238.459 4.3566 237.217 4.30558C236.516 4.27667 235.865 4.41951 235.221 4.75994C234.544 5.11772 233.81 5.91592 233.089 6.04311C231.891 6.25431 231.762 5.67717 231.229 4.55079C230.875 3.80429 230.42 3.12546 229.923 2.50786C228.975 1.33114 227.477 0.666263 226.117 1.039C224.812 1.39644 224.296 2.46705 223.67 3.76722C223.16 4.82558 222.691 3.60397 222.37 3.02752C222.017 2.39461 221.596 1.64063 221.024 1.25836C219.789 0.43398 218.469 -0.0441885 217.043 0.0030842C215.857 0.0421947 213.996 0.852293 213.538 2.29054C213.134 3.55602 212.692 7.02972 211.365 4.45148C210.637 3.03908 208.569 3.48664 207.558 4.02875C206.872 4.39707 206.144 5.15207 205.538 5.68397C205.09 6.07678 204.873 6.62331 204.673 7.21983C204.439 7.91599 204.443 8.74038 204.311 9.46953C204.174 10.2269 201.946 9.52599 201.448 9.52871C199.202 9.54095 197.5 11.4785 197.319 14.0982C197.223 15.4599 197.417 16.8283 197.883 18.0783C198.153 18.7955 198.275 18.9628 197.983 19.7213C197.678 20.512 196.811 21.2289 196.353 21.9223C195.563 23.1198 195.264 24.441 195.633 25.9109C195.826 26.6822 196.421 27.4104 196.815 28.0515C196.985 28.3286 197.652 29.3054 197.495 29.6805C197.335 30.0638 197.061 30.3988 196.885 30.78C195.537 33.7004 197.817 35.7297 199.855 36.5667C200.907 36.9989 201.355 35.0274 200.313 34.5989C199.592 34.3027 198.798 33.9888 198.37 33.1858C197.86 32.2291 198.803 31.1388 199.13 30.3593C200.019 28.2348 197.338 26.6006 197.163 24.7067C197 22.9341 199.223 21.7526 199.681 20.1875C199.835 19.6604 200.06 18.9496 199.928 18.3806C199.718 17.4756 199.243 16.704 199.074 15.7469C198.791 14.1369 199.206 12.2586 200.639 11.7362C202.276 11.1394 203.825 12.4637 205.373 11.2516C206.492 10.3749 205.649 8.11155 206.664 7.22187C207.296 6.6682 208.337 5.67309 209.114 5.5527C210.197 5.38469 210.373 6.73588 211.157 7.26948C212.19 7.97177 213.339 7.52489 214.042 6.40531C214.949 4.96162 214.609 3.02242 216.189 2.26435C217.616 1.57975 219.794 2.28136 220.697 3.73797C221.268 4.6586 221.975 6.45326 223.177 6.31858C224.368 6.18527 224.909 5.34252 225.455 4.16717C226.691 1.50459 228.858 3.87435 229.741 5.58161C230.576 7.19738 230.785 8.28193 232.612 8.1629C233.223 8.12311 233.812 8.03231 234.337 7.65923C235.257 7.00489 236.246 6.12371 237.379 6.40905C240.206 7.12052 236.579 13.1707 239.91 13.6323C240.618 13.7305 240.879 13.0782 241.533 12.7837C242.649 12.2814 243.934 13.8584 244.498 14.775C245.687 16.7067 243.88 19.2115 243.065 20.8351C242.85 21.2632 242.957 21.7084 243.2 22.0713C243.805 22.9773 244.558 23.4177 245.47 23.7731C246.857 24.3138 247.754 24.8604 247.345 26.7343C246.855 28.985 245.209 30.8756 244.001 32.6206C243.303 33.6286 244.514 35.0811 245.219 34.0629Z" fill="#1B1464"/>
<path opacity="0.5" d="M212.466 45.1876C212.421 45.1876 212.376 45.1859 212.331 45.1825C211.119 45.09 209.259 44.8308 207.109 43.6534C206.616 43.3756 206.235 42.8784 206.049 42.27C205.863 41.6615 205.888 40.9909 206.117 40.4036C206.346 39.8163 206.761 39.3597 207.273 39.133C207.785 38.9063 208.351 38.9278 208.849 39.1928C210.354 40.0165 211.642 40.2059 212.597 40.2784C213.134 40.3194 213.637 40.6063 213.999 41.0784C214.361 41.5505 214.554 42.1708 214.537 42.8082C214.52 43.4456 214.294 44.0502 213.908 44.4942C213.521 44.9382 213.004 45.1869 212.466 45.1876ZM232.735 45.2447C232.217 45.2436 231.719 45.0132 231.337 44.5988C230.955 44.1844 230.718 43.6159 230.672 43.0051C230.626 42.3943 230.775 41.7852 231.089 41.2974C231.403 40.8097 231.859 40.4786 232.369 40.3692C233.31 40.1678 234.572 39.8056 235.987 38.7837C236.456 38.4521 237.017 38.3534 237.548 38.5091C238.079 38.6648 238.536 39.0622 238.82 39.615C239.105 40.1679 239.194 40.8314 239.068 41.4613C238.941 42.0913 238.61 42.6369 238.147 42.9794C236.123 44.4407 234.301 44.9495 233.106 45.2053C232.984 45.2315 232.859 45.2447 232.735 45.2447Z" fill="#FF89D8"/>
<path d="M183.137 191.94C182.884 186.407 182.992 180.833 183.006 175.293C183.024 167.717 183.792 160.182 183.229 152.604C182.87 147.781 182.055 142.744 180.68 138.177C180.033 136.029 177.556 128.703 174.648 130.666C171.541 132.765 173.298 137.138 174.522 139.974C175.407 142.024 176.419 144.107 177.515 146.007C178.619 147.921 180.186 149.387 181.095 151.465C181.606 152.633 183.093 151.601 182.582 150.435C181.933 148.951 180.988 147.739 180.055 146.499C178.796 144.825 177.906 142.865 176.949 140.941C176.027 139.089 175.088 137.112 174.629 135.018C174.456 134.231 174.652 133.34 175.103 132.744C175.898 131.694 177.179 134.411 177.491 134.986C179.363 138.434 179.92 142.47 180.683 146.385C181.609 151.136 181.792 156.038 181.734 160.897C181.669 166.324 181.287 171.723 181.279 177.152C181.272 182.074 181.19 187.024 181.414 191.94C181.474 193.248 183.197 193.255 183.137 191.94Z" fill="#1B1464"/>
<path d="M216.31 195.359C212.327 195.262 208.321 194.464 204.379 193.848C199.03 193.012 193.688 192.109 188.336 191.302C186.251 190.988 184.165 190.685 182.072 190.457C180.918 190.331 179.723 190.162 178.569 190.356C174.845 190.983 171.077 191.244 167.394 192.195C164.406 192.967 161.144 193.96 158.383 195.546C156.526 196.612 155.085 198.359 153.903 200.327C152.865 202.056 151.718 203.687 150.688 205.423C149.729 207.041 148.787 208.983 148.871 211.026C148.934 212.538 149.813 213.924 151.113 214.067C152.359 214.204 153.481 212.578 154.138 211.56C155.155 209.986 155.972 208.254 156.758 206.51C159.012 201.503 162.178 197.295 165.437 193.176C166.196 192.217 164.98 190.771 164.219 191.733C161.639 194.994 159.105 198.329 156.975 202.028C155.566 204.477 154.588 207.224 153.179 209.677C152.772 210.386 151.947 211.963 151.113 212.026C150.725 212.056 150.593 211.003 150.581 210.717C150.545 209.843 150.931 208.95 151.259 208.2C151.913 206.708 152.824 205.369 153.701 204.056C154.591 202.722 155.365 201.262 156.303 199.98C158.423 197.082 161.54 196.232 164.525 195.254C168.328 194.008 172.06 193.307 175.982 192.792C177.883 192.542 179.097 192.239 180.955 192.39C182.854 192.543 184.747 192.819 186.636 193.091C192.241 193.898 197.831 194.854 203.427 195.739C207.681 196.411 212.011 197.294 216.31 197.4C217.422 197.427 217.419 195.386 216.31 195.359ZM291.001 117.489C289.714 122.045 288.546 126.648 287.305 131.222C286.638 133.68 285.955 136.131 285.23 138.567C284.946 139.519 285.775 140.234 286.36 140.639C287.379 141.344 288.513 141.832 289.579 142.427C290.324 142.843 291.87 143.508 292.204 144.51C292.468 145.299 289.508 144.093 289.293 143.986C287.982 143.327 286.751 142.48 285.483 141.718C284.911 141.374 284.186 141.791 284.187 142.599C284.19 147.081 283.388 151.454 282.686 155.837C282.001 160.109 281.829 164.379 281.384 168.681C280.968 172.707 280.02 176.644 278.615 180.339C277.115 184.285 275.053 187.887 273.521 191.821C270.975 198.358 269.976 205.078 271.202 212.143C272.018 216.842 273.994 222.801 278.613 223.354C279.718 223.486 279.707 221.444 278.613 221.313C274.297 220.796 273.039 213.442 272.534 209.387C271.582 201.75 274.049 194.534 277.106 187.96C278.604 184.739 280.127 181.621 281.22 178.166C282.298 174.761 282.875 171.182 283.216 167.578C283.613 163.395 283.875 159.291 284.547 155.142C285.218 150.995 285.913 146.838 285.91 142.599L284.614 143.48C286.82 144.807 290.024 147.608 292.636 146.739C293.657 146.4 294.188 144.933 293.811 143.804C293.369 142.481 292.154 141.702 291.148 141.075C289.922 140.31 288.618 139.74 287.39 138.982C287.228 138.881 287.045 138.775 286.9 138.641C286.718 138.405 286.715 138.561 286.891 139.109C286.98 138.81 287.069 138.511 287.157 138.211C287.586 136.756 287.995 135.291 288.401 133.826C289.856 128.575 291.181 123.273 292.662 118.032C293.015 116.78 291.352 116.248 291.001 117.489Z" fill="#1B1464"/>
<path d="M272.478 142.671C274.571 139.727 275.845 136.318 277.268 132.875C278.238 130.528 278.777 128.266 278.942 125.651C279.062 123.77 278.966 121.235 277.255 120.429C276.452 120.051 275.474 120.623 274.806 121.098C273.488 122.033 273.323 124.868 273.045 126.471C271.393 135.99 272.663 145.857 272.412 155.482C272.238 162.184 271.988 168.836 272.025 175.552C272.06 182.043 272.156 188.534 272.313 195.023C272.344 196.337 274.067 196.34 274.035 195.023C273.836 186.758 273.727 178.488 273.734 170.219C273.74 163.148 274.262 156.095 274.147 149.03C274.067 144.069 273.852 139.111 274.029 134.15C274.114 131.753 274.328 129.37 274.706 127.013C274.938 125.568 275.077 122.434 276.716 122.372C277.789 122.332 277.007 127.675 276.896 128.303C276.293 131.698 274.519 134.816 273.236 137.899C272.725 139.127 272.001 140.186 271.26 141.228C270.549 142.228 271.761 143.679 272.478 142.671Z" fill="#1B1464"/>
<path d="M218.335 194.011C220.613 192.527 227.187 192.028 229.519 192.963C231.735 193.852 235.316 201.032 236.358 203.86C238.259 209.022 235.342 212.34 232.788 217.341C230.52 221.78 227.889 226.132 226.18 230.772C221.203 228.269 217.957 229.162 212.723 229.025C210.956 218.365 210.775 198.937 218.335 194.011Z" fill="white"/>
<path d="M232.828 196.086C231.936 194.408 230.92 192.398 229.309 191.611C228.591 191.26 227.638 191.626 226.924 191.796C225.556 192.124 224.117 192.251 222.722 192.223C221.279 192.195 219.757 192.311 218.341 192.653C216.63 193.066 215.398 195.398 214.558 197.008C211.857 202.179 210.834 208.143 210.644 214.155C210.569 216.533 210.88 218.899 211.017 221.268C211.148 223.514 211.242 225.807 211.653 228.011C211.892 229.296 213.553 228.751 213.314 227.469C212.664 223.98 212.613 220.187 212.396 216.624C212.06 211.134 212.958 205.249 215 200.314C215.727 198.557 216.559 196.805 217.737 195.415C218.767 194.198 220.449 194.362 221.799 194.283C223.681 194.174 225.514 194.132 227.383 193.764C228.342 193.576 228.871 193.368 229.608 194.309C230.276 195.161 230.82 196.135 231.342 197.116C231.932 198.225 233.423 197.202 232.828 196.086Z" fill="#1B1464"/>
<path d="M226.231 204.307C225.642 205.376 224.697 206.854 225.009 208.209C225.301 209.477 226.963 208.938 226.67 207.667C226.672 207.79 226.672 207.785 226.671 207.652C226.671 207.812 226.724 207.439 226.722 207.446C226.785 207.192 226.896 206.959 227 206.726C227.215 206.246 227.468 205.791 227.719 205.336C228.328 204.231 226.836 203.21 226.231 204.307ZM223.15 212.802C222.531 213.851 222.297 215.186 222.466 216.441C222.54 216.991 223.111 217.288 223.525 217.153C224.015 216.994 224.2 216.447 224.127 215.898C224.032 215.198 224.302 214.4 224.637 213.833C224.907 213.376 224.709 212.7 224.328 212.437C223.898 212.138 223.419 212.348 223.15 212.802ZM221.057 221.455C220.762 222.396 220.696 223.432 220.845 224.417C220.928 224.965 221.483 225.267 221.904 225.13C222.387 224.972 222.588 224.422 222.506 223.875C222.415 223.277 222.536 222.579 222.718 221.998C222.882 221.476 222.54 220.881 222.117 220.743C221.634 220.586 221.221 220.935 221.057 221.455ZM225.134 198.253C226.138 199.668 227.607 200.592 228.956 201.46C230.79 202.641 232.698 203.651 234.54 204.814C235.52 205.433 236.39 203.672 235.41 203.052C233.819 202.047 232.185 201.142 230.58 200.168C229.109 199.275 227.435 198.336 226.353 196.81C225.637 195.802 224.425 197.253 225.134 198.253Z" fill="#1B1464"/>
<path d="M232.29 209.822L241.012 215.401C242.385 216.28 244.099 215.673 244.84 214.047C245.581 212.421 245.07 210.391 243.697 209.513L234.975 203.934" fill="white"/>
<path d="M231.856 210.703L238.391 214.883L240.577 216.283C242.419 217.46 244.51 216.581 245.584 214.562C246.55 212.746 245.934 210.326 244.631 209.034C243.925 208.334 242.964 207.885 242.163 207.373L235.41 203.053C234.433 202.428 233.563 204.19 234.541 204.815L239.653 208.085C241.247 209.105 245.214 210.63 244.097 213.533C242.977 216.44 239.472 213.258 238.085 212.37L232.725 208.941C231.748 208.316 230.878 210.078 231.856 210.703Z" fill="#1B1464"/>
<path d="M226.648 221.439L235.37 227.018C236.743 227.896 238.457 227.29 239.198 225.664C239.939 224.038 239.427 222.008 238.055 221.13L229.333 215.55" fill="white"/>
<path d="M226.213 222.32L232.748 226.5L234.935 227.899C236.776 229.077 238.867 228.197 239.941 226.179C240.907 224.362 240.292 221.943 238.988 220.651C238.282 219.951 237.321 219.502 236.52 218.989L229.767 214.67C228.79 214.044 227.92 215.806 228.898 216.432L234.01 219.702C235.605 220.722 239.571 222.246 238.454 225.149C237.334 228.056 233.83 224.874 232.442 223.986L227.083 220.558C226.105 219.933 225.236 221.694 226.213 222.32Z" fill="#1B1464"/>
<path d="M226.892 221.728L234.349 226.498C235.651 227.331 236.137 229.257 235.433 230.8C234.73 232.342 233.131 232.242 231.667 233.068L224.389 236.052L223.534 235.266C222.994 234.769 222.619 234.063 222.474 233.272C222.328 232.48 222.423 231.653 222.74 230.935L223.258 229.765" fill="white"/>
<path d="M226.458 222.609L230.805 225.39C232.269 226.327 235.692 227.638 234.69 230.285C234.267 231.398 232.225 231.762 231.327 232.13L228.978 233.093L224.16 235.069L224.998 235.331C224.438 234.816 223.874 234.371 223.491 233.643C222.894 232.507 223.557 231.285 224.002 230.28C224.517 229.116 223.03 228.084 222.515 229.25C221.644 231.218 221.137 233.026 222.217 235.079C222.796 236.18 223.954 237.309 225.04 236.863C227.598 235.814 230.152 234.751 232.702 233.678C234.729 232.824 236.298 232.302 236.612 229.482C236.824 227.573 235.577 226.125 234.298 225.307L227.327 220.848C226.35 220.222 225.48 221.984 226.458 222.609Z" fill="#1B1464"/>
<path d="M221.555 228.088L226.96 230.196Z" fill="white"/>
<path d="M221.326 229.072L226.731 231.18C227.789 231.592 228.239 229.621 227.189 229.212L221.784 227.104C220.726 226.692 220.276 228.663 221.326 229.072Z" fill="#1B1464"/>
<path d="M228.926 215.221L238.964 221.643C240.337 222.521 242.051 221.914 242.792 220.288C243.533 218.662 243.021 216.632 241.649 215.754L231.611 209.333" fill="white"/>
<path d="M228.492 216.102L235.701 220.714L238.497 222.502C240.351 223.689 242.447 222.85 243.536 220.803C244.65 218.709 243.698 216.078 242.084 214.873C241.256 214.255 240.342 213.759 239.481 213.208L232.046 208.452C231.069 207.827 230.199 209.588 231.177 210.214L236.946 213.904C238.583 214.951 243.213 216.752 242.049 219.773C240.882 222.803 236.791 219.093 235.378 218.189L229.361 214.34C228.384 213.715 227.514 215.477 228.492 216.102ZM312.51 123.831C313.936 123.749 315.928 124.301 316.682 125.884C317.139 126.843 318.385 125.982 317.928 125.022C316.922 122.912 314.447 122.011 312.51 122.123C311.585 122.177 311.58 123.885 312.51 123.831ZM222.233 228.207C208.004 228.179 193.774 228.184 179.544 228.19C172.833 228.193 166.12 228.198 159.408 228.204C157.22 228.206 154.915 227.814 152.766 227.389C150.933 227.027 149.081 226.532 147.495 225.343C145.987 224.212 145.032 222.295 144.27 220.444C142.393 215.876 141.903 211.289 142.904 206.34C143.877 201.527 145.898 197.088 147.587 192.595C149.508 187.487 150.953 182.126 152.419 176.818C155.689 164.979 158.883 153.032 161.452 140.948C162.189 137.477 162.282 133.853 162.576 130.3C162.826 127.261 163.082 124.222 163.344 121.185C163.582 118.451 163.674 115.636 164.609 113.082C166.105 108.999 169.17 105.883 172.101 103.257C175.536 100.177 179.344 97.7576 183.24 95.6075C184.811 94.7406 186.459 93.684 188.128 93.1259C189.157 92.7821 190.156 92.5423 191.069 91.8662C193.363 90.1668 195.085 87.258 196.667 84.7042C197.553 83.2734 198.422 81.7284 199.528 80.5177C199.693 80.3871 199.571 80.4109 199.162 80.5891C199.316 80.7105 199.472 80.8306 199.628 80.9486C200.105 81.3125 200.592 81.6587 201.078 82.0035C202.156 82.767 203.255 83.4877 204.362 84.189C206.525 85.5592 208.744 86.7794 211.072 87.7021C213.768 88.771 216.575 89.8665 219.344 90.6279C220.372 90.9105 220.808 89.0394 219.779 88.7564C217.97 88.2588 216.238 87.4698 214.453 86.8723C212.361 86.172 210.299 85.4184 208.316 84.3556C205.369 82.7776 202.469 80.8894 199.784 78.7502C198.47 77.7024 196.467 81.7923 195.912 82.6691C194.226 85.332 192.576 88.2449 190.242 90.1902C189.462 90.8401 188.429 91.0081 187.523 91.3112C185.779 91.8941 184.057 93.0361 182.413 93.9316C178.504 96.0606 174.727 98.5296 171.274 101.581C168.49 104.04 165.869 106.811 164 110.314C162.604 112.931 162.192 115.787 161.918 118.794C161.404 124.44 160.951 130.094 160.491 135.746C160.219 139.083 159.565 141.927 158.764 145.355C155.814 157.987 152.567 170.56 148.958 182.949C148.313 185.164 147.651 187.375 146.914 189.55C145.429 193.932 143.533 198.099 142.171 202.543C140.858 206.826 140.275 211.343 141.094 215.835C141.748 219.427 143.314 223.488 145.593 226.028C148.183 228.916 152.207 229.335 155.567 229.793C157.432 230.047 159.289 230.144 161.164 230.143C168.036 230.137 174.909 230.132 181.781 230.129C195.265 230.124 208.75 230.121 222.234 230.147C223.29 230.15 223.29 228.209 222.233 228.207Z" fill="#1B1464"/>
<path d="M291.121 117.743C291.848 123.084 297.594 125.215 301.312 126.588C303.627 127.443 306.079 128.5 308.49 128.819C311.813 129.259 314.798 128.086 317.718 126.291L316.486 125.453C316.858 129.434 315.508 133.34 315.053 137.252C314.628 140.908 314.358 144.592 314.162 148.274C313.896 153.265 314.011 158.286 314.002 163.285C313.991 169.061 313.969 174.838 313.976 180.614C313.987 189.353 314.209 198.02 312.738 206.639C311.429 214.31 308.779 221.926 303.61 227.086C302.191 228.502 300.848 228.186 299.04 228.186L278.002 228.193L236.427 228.207H236.42C235.364 228.207 235.364 230.148 236.42 230.148L277.449 230.134L298.811 230.127C300.292 230.127 301.781 230.251 303.202 229.628C305.423 228.655 307.138 225.68 308.516 223.554C310.377 220.684 311.658 217.623 312.689 214.212C315.71 204.214 315.77 193.435 315.626 182.954C315.56 178.164 315.619 173.368 315.629 168.578C315.654 156.77 315.118 144.584 317.402 133.006C317.89 130.534 318.363 128.002 318.124 125.452C318.055 124.716 317.483 124.251 316.891 124.614C314.355 126.173 311.82 127.199 308.932 126.935C306.73 126.734 304.484 125.684 302.371 124.939C299.077 123.78 293.352 122.011 292.7 117.227C292.533 115.995 290.954 116.519 291.121 117.743Z" fill="#1B1464"/>
</g>
<defs>
<clipPath id="clip0_46_1249">
<rect width="465.582" height="195.717" fill="white" transform="translate(0 35.0572)"/>
</clipPath>
<clipPath id="clip1_46_1249">
<rect width="191.77" height="236.963" fill="white" transform="translate(140.716)"/>
</clipPath>
</defs>
</svg>
