<svg width="190" height="206" viewBox="0 0 190 206" fill="none" xmlns="http://www.w3.org/2000/svg">
<path d="M126.134 160.134L130.6 169.959" stroke="white" stroke-width="3" stroke-linecap="round"/>
<path d="M184.638 104.5C162.672 71.0332 111.472 58.26 90.4394 58.5034C69.4069 58.7468 23.3253 72.4254 5.63818 104.5" stroke="white" stroke-width="10" stroke-linecap="round"/>
<path d="M184.638 104.309C162.717 134.527 111.62 146.059 90.6299 145.84C69.6399 145.62 23.6514 133.27 6 104.309" stroke="white" stroke-width="10" stroke-linecap="round"/>
<path d="M126.154 95.6008C126.154 113.855 110.783 128.892 91.5231 128.892C72.2629 128.892 56.8926 113.855 56.8926 95.6008C56.8926 77.3468 72.2629 62.3101 91.5231 62.3101C110.783 62.3101 126.154 77.3468 126.154 95.6008Z" stroke="white" stroke-width="8"/>
<path d="M37.7085 14.9903L57.1354 38.8832M90.4068 4.49532V32.6308M145.115 14.9903L125.465 38.8832" stroke="white" stroke-width="7" stroke-linecap="round"/>
<circle cx="112.96" cy="130.882" r="29.8248" stroke="white" stroke-width="6"/>
<mask id="path-7-inside-1_59_2584" fill="white">
<rect x="123.901" y="171.244" width="13.3467" height="37.9606" rx="3" transform="rotate(-25.5222 123.901 171.244)"/>
</mask>
<rect x="123.901" y="171.244" width="13.3467" height="37.9606" rx="3" transform="rotate(-25.5222 123.901 171.244)" stroke="white" stroke-width="10" mask="url(#path-7-inside-1_59_2584)"/>
<mask id="path-8-inside-2_59_2584" fill="white">
<ellipse cx="80.135" cy="84.4359" rx="5.35915" ry="5.13585"/>
</mask>
<path d="M78.4942 84.4359C78.4942 83.1286 79.5126 82.5718 80.135 82.5718V96.5718C86.677 96.5718 92.4942 91.4162 92.4942 84.4359H78.4942ZM80.135 82.5718C80.7575 82.5718 81.7759 83.1286 81.7759 84.4359H67.7759C67.7759 91.4162 73.593 96.5718 80.135 96.5718V82.5718ZM81.7759 84.4359C81.7759 85.7433 80.7575 86.3001 80.135 86.3001V72.3001C73.593 72.3001 67.7759 77.4557 67.7759 84.4359H81.7759ZM80.135 86.3001C79.5126 86.3001 78.4942 85.7433 78.4942 84.4359H92.4942C92.4942 77.4557 86.677 72.3001 80.135 72.3001V86.3001Z" fill="white" mask="url(#path-8-inside-2_59_2584)"/>
</svg>
