<svg width="23" height="23" viewBox="0 0 23 23" fill="none" xmlns="http://www.w3.org/2000/svg">
<path d="M1.84 0C0.8188 0 0 0.758148 0 1.7037V19.5926C0 20.5296 0.8188 21.2963 1.84 21.2963H14.517C14.057 20.8363 13.8 20.223 13.8 19.5926C13.8 18.187 15.042 17.037 16.56 17.037V15.3333C16.56 14.2259 17.3328 13.2801 18.4 12.9308V6.38889C18.4 6.15889 18.3089 5.94513 18.1341 5.78328L12.1541 0.246238C11.9793 0.0929051 11.7392 0 11.5 0H1.84ZM11.04 1.61885L16.6516 6.81482H11.96C11.454 6.81482 11.04 6.43148 11.04 5.96296V1.61885ZM4.20469 9.51512C4.48989 9.51512 4.76625 9.54054 5.03305 9.59165C5.30905 9.63424 5.55637 9.72801 5.76797 9.87283C5.97957 10.0176 6.15466 10.2144 6.29266 10.4784C6.42146 10.734 6.4957 11.066 6.4957 11.4834C6.4957 11.8582 6.44079 12.1726 6.33039 12.4367C6.21079 12.7008 6.06359 12.9137 5.87039 13.0756C5.67719 13.2374 5.46494 13.3566 5.20734 13.4333C4.95894 13.51 4.71047 13.5448 4.44367 13.5448H4.14898C4.08458 13.5363 4.02989 13.5367 3.97469 13.5281C3.91029 13.5196 3.87291 13.5184 3.84531 13.5098V15.5629H2.68633V9.65987C2.90713 9.61727 3.14726 9.57541 3.41406 9.55838C3.68086 9.53282 3.93789 9.51512 4.20469 9.51512ZM8.51898 9.51512H8.87836C9.38436 9.51512 9.80655 9.58327 10.147 9.72808C10.4874 9.8729 10.7639 10.0779 10.9663 10.342C11.1779 10.6061 11.3164 10.9291 11.4084 11.2954C11.4912 11.6617 11.5359 12.0801 11.5359 12.5315C11.5359 12.9489 11.4912 13.3397 11.4084 13.7145C11.3256 14.0978 11.1869 14.43 10.9753 14.7111C10.7637 15.0007 10.4786 15.2312 10.129 15.4015C9.77018 15.5719 9.32032 15.6578 8.78672 15.6578C8.70392 15.6578 8.59208 15.6563 8.46328 15.6478C8.32528 15.6393 8.18822 15.6313 8.04102 15.6228C7.89382 15.6143 7.74575 15.6064 7.61695 15.5979C7.47895 15.5894 7.3779 15.5798 7.3043 15.5713V9.59997C7.4147 9.58293 7.53466 9.5669 7.67266 9.55838C7.81066 9.54986 7.95872 9.54028 8.09672 9.53176C8.24392 9.52324 8.38098 9.52364 8.51898 9.51512ZM12.4559 9.59997H15.6759V10.5883H13.6167V12.1389H15.5106V13.1272H13.6167V15.5629H12.4559V9.59997ZM4.3143 10.4685C4.12478 10.4685 3.96859 10.4836 3.84531 10.5117V12.5482C3.88211 12.5601 3.95075 12.5696 4.05195 12.5781C4.15315 12.5866 4.22359 12.5898 4.26039 12.5898C4.39471 12.5898 4.52344 12.5739 4.64672 12.5399C4.76908 12.5058 4.87811 12.4478 4.97195 12.3652C5.06763 12.2825 5.14408 12.1689 5.19836 12.0241C5.25448 11.8793 5.28102 11.6965 5.28102 11.475C5.28102 11.2876 5.25439 11.1279 5.20195 10.9975C5.14951 10.8672 5.08004 10.7631 4.99172 10.6864C4.90248 10.6097 4.79858 10.5541 4.68266 10.52C4.56582 10.486 4.4431 10.4685 4.3143 10.4685ZM8.99695 10.5034C8.89943 10.5034 8.79987 10.505 8.69867 10.5084C8.59839 10.5109 8.51848 10.5173 8.46328 10.5284V14.6345C8.4826 14.6397 8.51431 14.6453 8.56031 14.6479C8.60631 14.6504 8.65614 14.6536 8.70766 14.6562C8.75918 14.6587 8.8072 14.6619 8.8532 14.6645C8.8992 14.6671 8.93183 14.6695 8.95023 14.6695C9.22623 14.6695 9.45277 14.6091 9.63125 14.4898C9.80789 14.3705 9.94964 14.2108 10.0499 14.0123C10.1511 13.8138 10.2206 13.5849 10.2602 13.3268C10.2997 13.0687 10.3212 12.7969 10.3212 12.5132C10.3212 12.2517 10.3032 12.0007 10.2691 11.7562C10.2379 11.5126 10.1726 11.2972 10.0769 11.1123C9.9812 10.9283 9.84826 10.7805 9.67438 10.6698C9.49958 10.559 9.27203 10.5034 8.99695 10.5034ZM19.32 14.4815C18.8122 14.4815 18.4 14.8631 18.4 15.3333V18.7407H16.56C16.0522 18.7407 15.64 19.1224 15.64 19.5926C15.64 19.8371 15.7544 20.054 15.9329 20.2099L18.6623 22.7421C18.8289 22.9006 19.0615 23 19.32 23C19.5785 23 19.8111 22.8997 19.9777 22.7405L22.7071 20.2099C22.8856 20.0548 23 19.8371 23 19.5926C23 19.1224 22.5878 18.7407 22.08 18.7407H20.24V15.3333C20.24 14.8631 19.8278 14.4815 19.32 14.4815Z" fill="#280A33"/>
</svg>
